<svg xmlns="http://www.w3.org/2000/svg" width="400" height="400" viewBox="0 0 26 26" fill="#5850EC">
  <path d="M 3 0 C 1.34375 0 0 1.34375 0 3 C 0 4.65625 1.34375 6 3 6 C 3.652344 6 4.257813 5.792969 4.75 5.4375 L 9.15625 9.84375 C 8.441406 10.707031 8 11.792969 8 13 C 8 14.011719 8.296875 14.933594 8.8125 15.71875 L 5 18.78125 C 4.46875 18.300781 3.773438 18 3 18 C 1.34375 18 0 19.34375 0 21 C 0 22.65625 1.34375 24 3 24 C 4.65625 24 6 22.65625 6 21 C 6 20.460938 5.839844 19.96875 5.59375 19.53125 L 9.4375 16.46875 C 10.347656 17.402344 11.59375 18 13 18 C 13.632813 18 14.226563 17.871094 14.78125 17.65625 L 16.25 20.5625 C 15.492188 21.105469 15 21.996094 15 23 C 15 24.65625 16.34375 26 18 26 C 19.65625 26 21 24.65625 21 23 C 21 21.34375 19.65625 20 18 20 C 17.6875 20 17.40625 20.070313 17.125 20.15625 L 15.65625 17.21875 C 16.644531 16.589844 17.394531 15.609375 17.75 14.46875 L 20 14.90625 C 20 14.9375 20 14.96875 20 15 C 20 16.65625 21.34375 18 23 18 C 24.65625 18 26 16.65625 26 15 C 26 13.34375 24.65625 12 23 12 C 21.722656 12 20.652344 12.8125 20.21875 13.9375 L 17.96875 13.46875 C 17.984375 13.3125 18 13.160156 18 13 C 18 11.082031 16.898438 9.433594 15.3125 8.59375 L 16.375 5.9375 C 16.578125 5.980469 16.78125 6 17 6 C 18.65625 6 20 4.65625 20 3 C 20 1.34375 18.65625 0 17 0 C 15.34375 0 14 1.34375 14 3 C 14 4.085938 14.574219 5.035156 15.4375 5.5625 L 14.375 8.21875 C 13.933594 8.089844 13.484375 8 13 8 C 11.792969 8 10.707031 8.441406 9.84375 9.15625 L 5.4375 4.75 C 5.792969 4.257813 6 3.652344 6 3 C 6 1.34375 4.65625 0 3 0 Z " fill="#5850EC"></path>
</svg>